<svg width="36" height="35" viewBox="0 0 36 35" fill="none" xmlns="http://www.w3.org/2000/svg">
<rect width="35" height="35" fill="black"/>
<path d="M8.802 21.21H3.33L2.322 24H0.594L5.13 11.526H7.02L11.538 24H9.81L8.802 21.21ZM8.334 19.878L6.066 13.542L3.798 19.878H8.334ZM23.0189 15.09C22.6709 14.358 22.1669 13.794 21.5069 13.398C20.8469 12.99 20.0789 12.786 19.2029 12.786C18.3269 12.786 17.5349 12.99 16.8269 13.398C16.1309 13.794 15.5789 14.37 15.1709 15.126C14.7749 15.87 14.5769 16.734 14.5769 17.718C14.5769 18.702 14.7749 19.566 15.1709 20.31C15.5789 21.054 16.1309 21.63 16.8269 22.038C17.5349 22.434 18.3269 22.632 19.2029 22.632C20.4269 22.632 21.4349 22.266 22.2269 21.534C23.0189 20.802 23.4809 19.812 23.6129 18.564H18.6089V17.232H25.3589V18.492C25.2629 19.524 24.9389 20.472 24.3869 21.336C23.8349 22.188 23.1089 22.866 22.2089 23.37C21.3089 23.862 20.3069 24.108 19.2029 24.108C18.0389 24.108 16.9769 23.838 16.0169 23.298C15.0569 22.746 14.2949 21.984 13.7309 21.012C13.1789 20.04 12.9029 18.942 12.9029 17.718C12.9029 16.494 13.1789 15.396 13.7309 14.424C14.2949 13.44 15.0569 12.678 16.0169 12.138C16.9769 11.586 18.0389 11.31 19.2029 11.31C20.5349 11.31 21.7109 11.64 22.7309 12.3C23.7629 12.96 24.5129 13.89 24.9809 15.09H23.0189ZM29.1627 12.786V16.98H33.7347V18.33H29.1627V22.65H34.2747V24H27.5247V11.436H34.2747V12.786H29.1627Z" fill="white"/>
</svg>
